<svg xmlns="http://www.w3.org/2000/svg" xmlns:xlink="http://www.w3.org/1999/xlink" version="1.1" width="20" height="50" viewBox="0,0,20,50">
    <g id="g-blrr0wtj2cc" style="mix-blend-mode: normal; paint-order: fill;"><g id="g-cm25j2rrd0o" transform="translate(-230.067 -157.494)" style="mix-blend-mode: normal; paint-order: fill;"><g id="g-ohr4apu4tyq" style="mix-blend-mode: normal; paint-order: fill;"><path id="path-zj4n03mmoma" d="M249.567,161.494C249.567,163.204263,247.751249,164.994,245.067,164.994C242.382751,164.994,238.097659,164.994,235.067,164.994C232.036341,164.994,230.567,163.204263,230.567,161.494C230.567,159.783737,232.221222,157.994,235.067,157.994C237.912778,157.994,242.012988,157.994,245.067,157.994C248.121012,157.994,249.567,159.783737,249.567,161.494Z" fill="rgb(0,0,255)" stroke="rgb(0,0,0)" stroke-miterlimit="10" style="mix-blend-mode: normal; paint-order: fill;"></path><path id="path-voxsbpeic2" d="M230.567,193.494L240.067,183.994" fill="none" stroke="rgb(0,0,0)" stroke-linecap="round" stroke-miterlimit="10" style="mix-blend-mode: normal; paint-order: fill;"></path><path id="path-2m1or6msqyt" d="M240.067,207.494L240.067,183.994" fill="none" stroke="rgb(0,0,0)" stroke-linecap="round" stroke-miterlimit="10" style="mix-blend-mode: normal; paint-order: fill;"></path><path id="path-oizk27emyyd" d="M249.567,193.494L240.067,183.994" fill="none" stroke="rgb(0,0,0)" stroke-linecap="round" stroke-miterlimit="10" style="mix-blend-mode: normal; paint-order: fill;"></path></g></g><ellipse id="ellipse-n5tr36tylj" rx="9.5" ry="9.5" transform="translate(10 17)" fill="rgb(255,255,0)" stroke="rgb(0,0,0)" style="mix-blend-mode: normal; paint-order: fill;"></ellipse><rect id="rect-v3u42oaahyk" fill="rgb(0,0,0)" width="2" height="3" rx="0" ry="0" stroke="none" stroke-width="0" transform="matrix(1.2 0 0 1.2 5.25 13.74093)" style="mix-blend-mode: normal; paint-order: fill;"></rect><rect id="rect-wuzsqxcdrm9" fill="rgb(0,0,0)" width="2" height="3" rx="0" ry="0" stroke="none" stroke-width="0" transform="matrix(1.2 0 0 1.2 12.35 13.74093)" style="mix-blend-mode: normal; paint-order: fill;"></rect><line id="line-itk5zw9nal7" x1="-3.55" y1="0" x2="3.55" y2="0" transform="translate(10 20.657672)" fill="none" stroke="rgb(0,0,0)" style="mix-blend-mode: normal; paint-order: fill;"></line></g>
</svg>