<svg xmlns="http://www.w3.org/2000/svg" xmlns:xlink="http://www.w3.org/1999/xlink" version="1.1" width="340" height="280" viewBox="0,0,340,280">
    
<g id="elements-wrapper"><rect id="rect-y7lhvcrtkh" fill="rgb(0,178,0)" width="340" height="244.814474" rx="0" ry="0" stroke="none" stroke-width="0" transform="matrix(1 0 0 1.013012 0 32)" style="mix-blend-mode: normal; paint-order: fill;"></rect><rect id="rect-bdsmdijpuv" fill="rgb(0,255,255)" width="340" height="32.786852" rx="0" ry="0" stroke="none" stroke-width="0" transform="matrix(1 0 0 0.976001 0 0)" style="mix-blend-mode: normal; paint-order: fill;"></rect><g id="g-4wkmja6vh4q" transform="translate(188.999993 192.000002)" style="mix-blend-mode: normal; paint-order: fill;"><path id="path-qqu7cr0ip9" d="M146.63754,51.272172C127.312678,54.710526,82.221322,64.27225,82.221322,64.27225L208.963906,64.27225Z" transform="matrix(0.986251 0 0 0.999994 -68.090861 -40.271864)" fill="rgb(64,64,64)" stroke="rgb(0,0,0)" stroke-width="0.5" stroke-linecap="round" stroke-linejoin="bevel" stroke-miterlimit="10" style="mix-blend-mode: normal; paint-order: fill;"></path><path d="M83.53333,109.46666L83.53333,64.46666L208.53333,64.46666L208.53333,109.46666" transform="translate(-70.53333 -40.46666)" fill="rgb(192,192,192)" stroke="rgb(0,0,0)" stroke-width="0.5" stroke-miterlimit="10" id="path-gjhz6px5sr" style="mix-blend-mode: normal; paint-order: fill;" stroke-linejoin="round" stroke-linecap="square"></path><text id="text-go9b8ph96gr" font-family="Arial" font-size="40" font-weight="400" text-decoration="" letter-spacing="0" transform="matrix(0.22553 0 0 0.22553 71.588929 20.602378)" fill="rgb(255,255,255)" stroke="none" stroke-miterlimit="10" style="mix-blend-mode: normal; paint-order: fill;"><tspan id="tspan-uhys6k4e3j" x="0" font-family="Arial" font-size="40" font-style="normal" font-weight="400" text-decoration="" letter-spacing="0" fill="rgb(255,255,255)" stroke-width="1" stroke-miterlimit="10" style="mix-blend-mode: normal; paint-order: fill;">#8</tspan></text></g><g id="g-vnhc8fsvgo" transform="translate(188.999993 128.000002)" style="mix-blend-mode: normal; paint-order: fill;"><path id="path-9p3bkb6a1pt" d="M146.63754,51.272172C127.312678,54.710526,82.221322,64.27225,82.221322,64.27225L208.963906,64.27225Z" transform="matrix(0.986251 0 0 0.999994 -68.090861 -40.271864)" fill="rgb(64,64,64)" stroke="rgb(0,0,0)" stroke-width="0.5" stroke-linecap="round" stroke-linejoin="bevel" stroke-miterlimit="10" style="mix-blend-mode: normal; paint-order: fill;"></path><path id="path-4ojlgwqdklr" d="M83.53333,109.46666L83.53333,64.46666L208.53333,64.46666L208.53333,109.46666" transform="translate(-70.53333 -40.46666)" fill="rgb(192,192,192)" stroke="rgb(0,0,0)" stroke-width="0.5" stroke-linecap="square" stroke-linejoin="round" stroke-miterlimit="10" style="mix-blend-mode: normal; paint-order: fill;"></path><text id="text-izbeln3xk1i" font-family="Arial" font-size="40" font-weight="400" text-decoration="" letter-spacing="0" transform="matrix(0.22553 0 0 0.22553 71.588929 20.602378)" fill="rgb(255,255,255)" stroke="none" stroke-miterlimit="10" style="mix-blend-mode: normal; paint-order: fill;"><tspan id="tspan-h8pagysa0bf" x="0" font-family="Arial" font-size="40" font-style="normal" font-weight="400" text-decoration="" letter-spacing="0" fill="rgb(255,255,255)" stroke-width="1" stroke-miterlimit="10" style="mix-blend-mode: normal; paint-order: fill;">#6</tspan></text></g><g id="g-945uifno5qa" transform="translate(188.999993 64.000002)" style="mix-blend-mode: normal; paint-order: fill;"><path id="path-6qzjc4il9iy" d="M146.63754,51.272172C127.312678,54.710526,82.221322,64.27225,82.221322,64.27225L208.963906,64.27225Z" transform="matrix(0.986251 0 0 0.999994 -68.090861 -40.271864)" fill="rgb(64,64,64)" stroke="rgb(0,0,0)" stroke-width="0.5" stroke-linecap="round" stroke-linejoin="bevel" stroke-miterlimit="10" style="mix-blend-mode: normal; paint-order: fill;"></path><path id="path-hph2mn14jv9" d="M83.53333,109.46666L83.53333,64.46666L208.53333,64.46666L208.53333,109.46666" transform="translate(-70.53333 -40.46666)" fill="rgb(192,192,192)" stroke="rgb(0,0,0)" stroke-width="0.5" stroke-linecap="square" stroke-linejoin="round" stroke-miterlimit="10" style="mix-blend-mode: normal; paint-order: fill;"></path><text id="text-6w6vgqu6f8m" font-family="Arial" font-size="40" font-weight="400" text-decoration="" letter-spacing="0" transform="matrix(0.22553 0 0 0.22553 71.588929 20.602378)" fill="rgb(255,255,255)" stroke="none" stroke-miterlimit="10" style="mix-blend-mode: normal; paint-order: fill;"><tspan id="tspan-snykjuhvzel" x="0" font-family="Arial" font-size="40" font-style="normal" font-weight="400" text-decoration="" letter-spacing="0" fill="rgb(255,255,255)" stroke-width="1" stroke-miterlimit="10" style="mix-blend-mode: normal; paint-order: fill;">#4</tspan></text></g><g id="g-3929n56q0f2" transform="translate(188.999993 0)" style="mix-blend-mode: normal; paint-order: fill;"><path id="path-fs3l0s5ub3b" d="M146.63754,51.272172C127.312678,54.710526,82.221322,64.27225,82.221322,64.27225L208.963906,64.27225Z" transform="matrix(0.986251 0 0 0.999994 -68.090861 -40.271864)" fill="rgb(64,64,64)" stroke="rgb(0,0,0)" stroke-width="0.5" stroke-linecap="round" stroke-linejoin="bevel" stroke-miterlimit="10" style="mix-blend-mode: normal; paint-order: fill;"></path><path id="path-n722s3m29zf" d="M83.53333,109.46666L83.53333,64.46666L208.53333,64.46666L208.53333,109.46666" transform="translate(-70.53333 -40.46666)" fill="rgb(192,192,192)" stroke="rgb(0,0,0)" stroke-width="0.5" stroke-linecap="square" stroke-linejoin="round" stroke-miterlimit="10" style="mix-blend-mode: normal; paint-order: fill;"></path><text id="text-sla3cphx40f" font-family="Arial" font-size="40" font-weight="400" text-decoration="" letter-spacing="0" transform="matrix(0.22553 0 0 0.22553 71.588929 20.602378)" fill="rgb(255,255,255)" stroke="none" stroke-miterlimit="10" style="mix-blend-mode: normal; paint-order: fill;"><tspan id="tspan-nmjntn691td" x="0" font-family="Arial" font-size="40" font-style="normal" font-weight="400" text-decoration="" letter-spacing="0" fill="rgb(255,255,255)" stroke-width="1" stroke-miterlimit="10" style="mix-blend-mode: normal; paint-order: fill;">#2</tspan></text></g><g id="g-ead2dnglkct" transform="translate(0.000001 0)" style="mix-blend-mode: normal; paint-order: fill;"><path id="path-grr6enqcfag" d="M146.63754,51.272172C127.312678,54.710526,82.221322,64.27225,82.221322,64.27225L208.963906,64.27225Z" transform="matrix(0.986251 0 0 0.999994 -68.090861 -40.271864)" fill="rgb(64,64,64)" stroke="rgb(0,0,0)" stroke-width="0.5" stroke-linecap="round" stroke-linejoin="bevel" stroke-miterlimit="10" style="mix-blend-mode: normal; paint-order: fill;"></path><path id="path-qvfhnm9iuc8" d="M83.53333,109.46666L83.53333,64.46666L208.53333,64.46666L208.53333,109.46666" transform="translate(-70.53333 -40.46666)" fill="rgb(192,192,192)" stroke="rgb(0,0,0)" stroke-width="0.5" stroke-linecap="square" stroke-linejoin="round" stroke-miterlimit="10" style="mix-blend-mode: normal; paint-order: fill;"></path><text id="text-ip53lytnh09" font-family="Arial" font-size="40" font-weight="400" text-decoration="" letter-spacing="0" transform="matrix(0.22553 0 0 0.22553 71.588929 20.602378)" fill="rgb(255,255,255)" stroke="none" stroke-miterlimit="10" style="mix-blend-mode: normal; paint-order: fill;"><tspan id="tspan-2n55wm79264" x="0" font-family="Arial" font-size="40" font-style="normal" font-weight="400" text-decoration="" letter-spacing="0" fill="rgb(255,255,255)" stroke-width="1" stroke-miterlimit="10" style="mix-blend-mode: normal; paint-order: fill;">#1</tspan></text></g><g id="g-nfmizmncx28" transform="translate(0.000001 192.000002)" style="mix-blend-mode: normal; paint-order: fill;"><path id="path-u0s4a8disq" d="M146.63754,51.272172C127.312678,54.710526,82.221322,64.27225,82.221322,64.27225L208.963906,64.27225Z" transform="matrix(0.986251 0 0 0.999994 -68.090861 -40.271864)" fill="rgb(64,64,64)" stroke="rgb(0,0,0)" stroke-width="0.5" stroke-linecap="round" stroke-linejoin="bevel" stroke-miterlimit="10" style="mix-blend-mode: normal; paint-order: fill;"></path><path id="path-fbjv8rg2ui" d="M83.53333,109.46666L83.53333,64.46666L208.53333,64.46666L208.53333,109.46666" transform="translate(-70.53333 -40.46666)" fill="rgb(192,192,192)" stroke="rgb(0,0,0)" stroke-width="0.5" stroke-linecap="square" stroke-linejoin="round" stroke-miterlimit="10" style="mix-blend-mode: normal; paint-order: fill;"></path><text id="text-br8s1tdy0n" font-family="Arial" font-size="40" font-weight="400" text-decoration="" letter-spacing="0" transform="matrix(0.22553 0 0 0.22553 71.588929 20.602378)" fill="rgb(255,255,255)" stroke="none" stroke-miterlimit="10" style="mix-blend-mode: normal; paint-order: fill;"><tspan id="tspan-s4rgksbh4vj" x="0" font-family="Arial" font-size="40" font-style="normal" font-weight="400" text-decoration="" letter-spacing="0" fill="rgb(255,255,255)" stroke-width="1" stroke-miterlimit="10" style="mix-blend-mode: normal; paint-order: fill;">#7</tspan></text></g><g id="g-notou6vspgr" transform="translate(0.000001 128.000002)" style="mix-blend-mode: normal; paint-order: fill;"><path id="path-n6ykfsh7cq" d="M146.63754,51.272172C127.312678,54.710526,82.221322,64.27225,82.221322,64.27225L208.963906,64.27225Z" transform="matrix(0.986251 0 0 0.999994 -68.090861 -40.271864)" fill="rgb(64,64,64)" stroke="rgb(0,0,0)" stroke-width="0.5" stroke-linecap="round" stroke-linejoin="bevel" stroke-miterlimit="10" style="mix-blend-mode: normal; paint-order: fill;"></path><path id="path-nohzngy5j7" d="M83.53333,109.46666L83.53333,64.46666L208.53333,64.46666L208.53333,109.46666" transform="translate(-70.53333 -40.46666)" fill="rgb(192,192,192)" stroke="rgb(0,0,0)" stroke-width="0.5" stroke-linecap="square" stroke-linejoin="round" stroke-miterlimit="10" style="mix-blend-mode: normal; paint-order: fill;"></path><text id="text-6n40jl0ozg6" font-family="Arial" font-size="40" font-weight="400" text-decoration="" letter-spacing="0" transform="matrix(0.22553 0 0 0.22553 71.588929 20.602378)" fill="rgb(255,255,255)" stroke="none" stroke-miterlimit="10" style="mix-blend-mode: normal; paint-order: fill;"><tspan id="tspan-eurmvdsyb9m" x="0" font-family="Arial" font-size="40" font-style="normal" font-weight="400" text-decoration="" letter-spacing="0" fill="rgb(255,255,255)" stroke-width="1" stroke-miterlimit="10" style="mix-blend-mode: normal; paint-order: fill;">#5</tspan></text></g><g id="g-cp46eh0zskv" transform="translate(0.000001 64.000002)" style="mix-blend-mode: normal; paint-order: fill;"><path id="path-d55ux6ptdec" d="M146.63754,51.272172C127.312678,54.710526,82.221322,64.27225,82.221322,64.27225L208.963906,64.27225Z" transform="matrix(0.986251 0 0 0.999994 -68.090861 -40.271864)" fill="rgb(64,64,64)" stroke="rgb(0,0,0)" stroke-width="0.5" stroke-linecap="round" stroke-linejoin="bevel" stroke-miterlimit="10" style="mix-blend-mode: normal; paint-order: fill;"></path><path id="path-j5quqdwdipb" d="M83.53333,109.46666L83.53333,64.46666L208.53333,64.46666L208.53333,109.46666" transform="translate(-70.53333 -40.46666)" fill="rgb(192,192,192)" stroke="rgb(0,0,0)" stroke-width="0.5" stroke-linecap="square" stroke-linejoin="round" stroke-miterlimit="10" style="mix-blend-mode: normal; paint-order: fill;"></path><text id="text-k8xps0gfwbn" font-family="Arial" font-size="40" font-weight="400" text-decoration="" letter-spacing="0" transform="matrix(0.22553 0 0 0.22553 71.588929 20.602378)" fill="rgb(255,255,255)" stroke="none" stroke-miterlimit="10" style="mix-blend-mode: normal; paint-order: fill;"><tspan id="tspan-gspu7ymn06" x="0" font-family="Arial" font-size="40" font-style="normal" font-weight="400" text-decoration="" letter-spacing="0" fill="rgb(255,255,255)" stroke-width="1" stroke-miterlimit="10" style="mix-blend-mode: normal; paint-order: fill;">#3</tspan></text></g></g>

<g id="g-blrr0wtj2cc" transform="matrix(0.5,0,0,0.5,165,250)" scale="0.5" style="mix-blend-mode: normal; paint-order: fill;"><g id="g-cm25j2rrd0o" transform="translate(-230.067 -157.494)" style="mix-blend-mode: normal; paint-order: fill;"><g id="g-ohr4apu4tyq" style="mix-blend-mode: normal; paint-order: fill;"><path id="path-zj4n03mmoma" d="M249.567,161.494C249.567,163.204263,247.751249,164.994,245.067,164.994C242.382751,164.994,238.097659,164.994,235.067,164.994C232.036341,164.994,230.567,163.204263,230.567,161.494C230.567,159.783737,232.221222,157.994,235.067,157.994C237.912778,157.994,242.012988,157.994,245.067,157.994C248.121012,157.994,249.567,159.783737,249.567,161.494Z" fill="rgb(0,0,255)" stroke="rgb(0,0,0)" stroke-miterlimit="10" style="mix-blend-mode: normal; paint-order: fill;"></path><path id="path-voxsbpeic2" d="M230.567,193.494L240.067,183.994" fill="none" stroke="rgb(0,0,0)" stroke-linecap="round" stroke-miterlimit="10" style="mix-blend-mode: normal; paint-order: fill;"></path><path id="path-2m1or6msqyt" d="M240.067,207.494L240.067,183.994" fill="none" stroke="rgb(0,0,0)" stroke-linecap="round" stroke-miterlimit="10" style="mix-blend-mode: normal; paint-order: fill;"></path><path id="path-oizk27emyyd" d="M249.567,193.494L240.067,183.994" fill="none" stroke="rgb(0,0,0)" stroke-linecap="round" stroke-miterlimit="10" style="mix-blend-mode: normal; paint-order: fill;"></path></g></g><ellipse id="ellipse-n5tr36tylj" rx="9.5" ry="9.5" transform="translate(10 17)" fill="rgb(255,255,0)" stroke="rgb(0,0,0)" style="mix-blend-mode: normal; paint-order: fill;"></ellipse><rect id="rect-v3u42oaahyk" fill="rgb(0,0,0)" width="2" height="3" rx="0" ry="0" stroke="none" stroke-width="0" transform="matrix(1.2 0 0 1.2 5.25 13.74093)" style="mix-blend-mode: normal; paint-order: fill;"></rect><rect id="rect-wuzsqxcdrm9" fill="rgb(0,0,0)" width="2" height="3" rx="0" ry="0" stroke="none" stroke-width="0" transform="matrix(1.2 0 0 1.2 12.35 13.74093)" style="mix-blend-mode: normal; paint-order: fill;"></rect><line id="line-itk5zw9nal7" x1="-3.55" y1="0" x2="3.55" y2="0" transform="translate(10 20.657672)" fill="none" stroke="rgb(0,0,0)" style="mix-blend-mode: normal; paint-order: fill;"></line>

<animateMotion 
    id="animation"
    dur="5s"
    repeatCount="2"
    path="m0,0 l20,-20 v-64 l-20,20 v64 z"
/>
</g>

</svg>